<svg width="1297" height="500" viewBox="0 0 1297 500" fill="none" xmlns="http://www.w3.org/2000/svg">
<path d="M965.219 351.682H1010.13C1035.04 351.682 1054.69 360.98 1054.69 388.523C1054.69 401.856 1048.9 413.259 1036.62 419.575C1054.69 422.733 1067.5 432.733 1067.5 456.066C1067.5 479.925 1050.13 496.416 1020.13 496.416H965.219V351.682ZM998.201 408.347H1000.83C1015.04 408.347 1022.76 403.961 1022.76 391.856C1022.76 381.506 1015.22 377.12 1000.83 377.12H998.201V408.347ZM998.201 470.978H1008.55C1024.17 470.978 1032.76 466.241 1032.76 454.838C1032.76 441.505 1024.17 436.768 1008.55 436.768H998.201V470.978Z" fill="#0A2D57"/>
<path d="M945.893 351.682V445.013C945.893 480.802 926.244 499.047 889.401 499.047C852.559 499.047 832.91 480.802 832.91 445.013V351.682H865.893V435.364C865.893 459.574 873.261 466.592 889.401 466.592C905.542 466.592 912.91 459.574 912.91 435.364V351.682H945.893Z" fill="#0A2D57"/>
<path d="M768.451 351.682V467.469H818.276V496.416H735.469V351.682H768.451Z" fill="#0A2D57"/>
<path d="M680.396 466.589C697.238 466.589 708.817 457.641 708.817 457.641L722.852 485.711C722.852 485.711 706.711 499.044 675.308 499.044C634.431 499.044 596.887 465.711 596.887 424.309C596.887 382.73 634.255 349.047 675.308 349.047C706.711 349.047 722.852 362.38 722.852 362.38L708.817 390.45C708.817 390.45 697.238 381.502 680.396 381.502C647.238 381.502 632.676 404.66 632.676 423.958C632.676 443.431 647.238 466.589 680.396 466.589Z" fill="#0A2D57"/>
<path d="M1237.59 292.947H1296.9V321.895H1237.59V292.947Z" fill="#0A2D57"/>
<path d="M1193.09 321.892H1157.66L1146.95 292.944H1091.87L1081.17 321.892H1045.73L1104.15 177.154H1134.67L1193.09 321.892ZM1231.45 321.892H1198.99V177.154H1231.45V321.892ZM1119.41 227.796C1119.4 227.867 1117.7 238.638 1113.11 243.225C1108.52 247.817 1097.73 249.517 1097.68 249.524C1097.73 249.532 1108.52 251.231 1113.11 255.823C1117.7 260.41 1119.4 271.182 1119.41 271.253C1119.42 271.182 1121.12 260.41 1125.71 255.823C1130.3 251.234 1141.08 249.533 1141.14 249.524C1141.08 249.516 1130.3 247.815 1125.71 243.225C1121.12 238.637 1119.42 227.866 1119.41 227.796Z" fill="url(#paint0_linear_594_1097)"/>
<path d="M1040.18 177.156V321.893H1007.2V177.156H1040.18Z" fill="#0A2D57"/>
<path d="M952.118 292.069C968.96 292.069 980.539 283.122 980.539 283.122L994.574 311.192C994.574 311.192 978.434 324.525 947.03 324.525C906.153 324.525 868.609 291.192 868.609 249.789C868.609 208.21 905.978 174.525 947.03 174.525C978.434 174.525 994.574 187.859 994.574 187.859L980.539 215.929C980.539 215.929 968.96 206.982 952.118 206.982C918.96 206.982 904.399 230.139 904.399 249.438C904.399 268.911 918.96 292.069 952.118 292.069Z" fill="#0A2D57"/>
<path d="M714.762 249.438C714.762 207.157 747.92 174.525 787.744 174.525C827.919 174.525 860.551 207.157 860.551 249.438C860.551 291.718 829.323 324.525 787.744 324.525C744.937 324.525 714.762 291.718 714.762 249.438ZM750.376 249.438C750.376 271.017 760.727 292.596 787.744 292.596C814.06 292.596 824.937 271.017 824.937 249.438C824.937 227.859 813.358 206.28 787.744 206.28C762.306 206.28 750.376 227.859 750.376 249.438Z" fill="#0A2D57"/>
<path d="M656.711 174.525C683.027 174.525 701.623 188.21 701.623 188.21L688.29 214.525C688.29 214.525 673.904 204.525 658.992 204.525C647.764 204.525 641.799 209.613 641.799 217.508C641.799 225.578 655.483 231.368 671.974 238.385C688.115 245.227 705.834 258.911 705.834 277.859C705.834 312.42 679.518 324.525 651.273 324.525C617.413 324.525 596.887 305.403 596.887 305.403L613.378 277.683C613.378 277.683 632.676 293.999 648.816 293.999C656.009 293.999 669.694 293.297 669.694 279.789C669.694 269.262 654.255 264.525 637.062 255.929C619.694 247.332 609.518 233.824 609.518 218.736C609.518 191.718 633.378 174.525 656.711 174.525Z" fill="#0A2D57"/>
<path d="M967.213 147.325L960.249 60.0039H959.356L929.178 146.432H909.178L878.999 60.0039H878.106L871.142 147.325H837.57L850.785 0.00390625H886.499L919.178 85.0039L951.856 0.00390625H987.571L1000.78 147.325H967.213Z" fill="#0A2D57"/>
<path d="M825.766 0.00390625V95.0039C825.766 131.432 805.766 150.004 768.266 150.004C730.766 150.004 710.766 131.432 710.766 95.0039V0.00390625H744.337V85.1825C744.337 109.825 751.837 116.968 768.266 116.968C784.694 116.968 792.194 109.825 792.194 85.1825V0.00390625H825.766Z" fill="#0A2D57"/>
<path d="M596.887 29.4682V0.00390625H700.458V29.4682H665.458V147.325H631.887V29.4682H596.887Z" fill="#0A2D57"/>
<path d="M258.979 0.00195387C265.658 0.001895 268.998 0.00190214 271.653 1.42481C273.887 2.6217 275.888 4.76546 276.928 7.07617C278.164 9.82331 277.949 12.9453 277.518 19.1885C272.903 85.9547 244.329 149.073 196.701 196.7C149.073 244.327 85.9538 272.901 19.1865 277.515C12.9434 277.946 9.82139 278.162 7.07422 276.926C4.7634 275.886 2.61979 273.884 1.42285 271.65C5.97107e-05 268.995 -5.80469e-05 265.655 7.34252e-07 258.977L0.000977297 205.723C0.00103637 199.01 0.000642049 195.654 1.14551 193.225C2.22572 190.932 3.6277 189.377 5.79688 188.067C8.09593 186.679 11.787 186.298 19.168 185.536C61.5938 181.154 101.459 162.324 131.892 131.892C162.324 101.46 181.155 61.595 185.537 19.1699C186.299 11.7891 186.68 8.09784 188.068 5.79883C189.378 3.62969 190.933 2.22767 193.226 1.14746C195.655 0.0026286 199.011 0.00298961 205.724 0.00293044L258.979 0.00195387Z" fill="#0A2D57"/>
<path d="M0.003907 241.024C0.00384813 234.346 0.00382596 231.006 1.42676 228.351C2.62368 226.117 4.76741 224.116 7.07813 223.076C9.82529 221.84 12.9473 222.056 19.1904 222.487C85.9578 227.101 149.077 255.675 196.705 303.302C244.333 350.929 272.907 414.047 277.521 480.813C277.953 487.056 278.168 490.178 276.932 492.925C275.891 495.236 273.891 497.38 271.657 498.577C269.002 500 265.662 500 258.983 500L205.728 499.999C199.015 499.999 195.659 499.999 193.229 498.854C190.937 497.774 189.383 496.371 188.073 494.202C186.685 491.903 186.303 488.213 185.541 480.832C181.159 438.407 162.328 398.542 131.896 368.11C101.463 337.678 61.5978 318.848 19.1719 314.466C11.7912 313.704 8.10083 313.322 5.80176 311.934C3.63258 310.624 2.22964 309.07 1.14941 306.777C0.00456151 304.348 0.00494274 300.991 0.00488357 294.279L0.003907 241.024ZM0.00586013 435.099C0.00586013 399.261 29.0588 370.208 64.8975 370.208C100.736 370.208 129.79 399.26 129.79 435.099C129.79 470.937 100.736 499.989 64.8975 499.989C29.0588 499.989 0.00594315 470.937 0.00586013 435.099Z" fill="url(#paint1_linear_594_1097)"/>
<path d="M241.021 500C234.342 500 231.002 500 228.347 498.577C226.113 497.38 224.112 495.236 223.072 492.926C221.836 490.179 222.051 487.057 222.482 480.813C227.097 414.047 255.671 350.929 303.299 303.302C350.927 255.675 414.046 227.101 480.814 222.487C487.057 222.056 490.179 221.84 492.926 223.076C495.237 224.116 497.38 226.118 498.577 228.352C500 231.007 500 234.347 500 241.025L499.999 294.279C499.999 300.992 499.999 304.348 498.855 306.777C497.774 309.07 496.372 310.625 494.203 311.935C491.904 313.323 488.213 313.704 480.832 314.466C438.406 318.848 398.541 337.678 368.108 368.11C337.676 398.542 318.845 438.407 314.463 480.832C313.701 488.213 313.32 491.904 311.932 494.203C310.622 496.372 309.067 497.774 306.774 498.854C304.345 499.999 300.989 499.999 294.276 499.999L241.021 500ZM435.098 499.998C399.259 499.998 370.205 470.946 370.205 435.107C370.205 399.269 399.259 370.217 435.098 370.217C470.936 370.217 499.989 399.269 499.989 435.107C499.989 470.945 470.936 499.998 435.098 499.998Z" fill="#0A2D57"/>
<path d="M294.269 0.00292969C300.981 0.00298933 304.337 0.00276538 306.767 1.14746C309.059 2.22769 310.614 3.63055 311.924 5.7998C313.312 8.09883 313.694 11.7892 314.456 19.1699C318.838 61.595 337.668 101.46 368.101 131.892C398.533 162.324 438.399 181.154 480.825 185.536C488.206 186.298 491.896 186.68 494.195 188.068C496.365 189.378 497.768 190.932 498.848 193.225C499.993 195.654 499.992 199.011 499.992 205.723V258.978C499.992 265.656 499.992 268.996 498.569 271.651C497.372 273.885 495.229 275.886 492.918 276.926C490.171 278.162 487.049 277.946 480.806 277.515C414.039 272.901 350.919 244.327 303.291 196.7C255.664 149.073 227.09 85.9546 222.476 19.1885C222.044 12.9458 221.828 9.82417 223.065 7.07715C224.105 4.76631 226.106 2.62175 228.34 1.4248C230.995 0.00214791 234.335 0.00189378 241.014 0.00195312L294.269 0.00292969ZM435.105 0C435.105 35.8397 464.156 64.8906 499.996 64.8906C464.156 64.8907 435.101 93.9445 435.101 129.784C435.101 93.9446 406.043 64.8869 370.202 64.8867C406.043 64.8865 435.105 35.8396 435.105 0Z" fill="url(#paint2_linear_594_1097)"/>
<path d="M0.00683596 261.744C0.0021611 260.89 -8.71702e-06 259.97 2.63149e-08 258.977L0.000976589 205.723C0.000985733 204.684 0.00258293 203.725 0.00683596 202.838V261.744ZM258.979 0.00195387C265.658 0.001895 268.998 0.00190214 271.653 1.42481C273.887 2.6217 275.888 4.76546 276.928 7.07617C278.164 9.82331 277.949 12.9453 277.518 19.1885C272.903 85.9547 244.329 149.073 196.701 196.7C196.574 196.827 196.446 196.953 196.319 197.079L131.509 132.27C131.636 132.143 131.765 132.018 131.892 131.892C162.324 101.46 181.155 61.595 185.537 19.1699C186.299 11.7891 186.68 8.09784 188.068 5.79883C189.378 3.62969 190.933 2.22767 193.226 1.14746C195.655 0.0026286 199.011 0.00298961 205.724 0.00293044L258.979 0.00195387Z" fill="#0A2D57"/>
<ellipse cx="64.8997" cy="64.8908" rx="64.8918" ry="64.8908" fill="#0A2D57"/>
<defs>
<linearGradient id="paint0_linear_594_1097" x1="1035.12" y1="248.609" x2="1231.45" y2="249.523" gradientUnits="userSpaceOnUse">
<stop offset="0.0817308" stop-color="#4A98FF"/>
<stop offset="1" stop-color="#4BFFC0"/>
</linearGradient>
<linearGradient id="paint1_linear_594_1097" x1="64.9137" y1="435.091" x2="446.591" y2="64.0776" gradientUnits="userSpaceOnUse">
<stop stop-color="#4A98FF"/>
<stop offset="1" stop-color="#4BFFC0"/>
</linearGradient>
<linearGradient id="paint2_linear_594_1097" x1="64.4866" y1="432.819" x2="434.064" y2="66.001" gradientUnits="userSpaceOnUse">
<stop stop-color="#4A98FF"/>
<stop offset="1" stop-color="#4BFFC0"/>
</linearGradient>
</defs>
</svg>
